<?xml version="1.0" standalone="no"?><!DOCTYPE svg PUBLIC "-//W3C//DTD SVG 1.1//EN" "http://www.w3.org/Graphics/SVG/1.1/DTD/svg11.dtd"><svg t="1557826623038" class="icon" style="" viewBox="0 0 1096 1024" version="1.1" xmlns="http://www.w3.org/2000/svg" p-id="25376" xmlns:xlink="http://www.w3.org/1999/xlink" width="214.0625" height="200"><defs><style type="text/css"></style></defs><path d="M274.098337 355.196407c-37.738706 0-68.323847 31.680074-68.323846 70.805696 0 39.198617 30.658136 70.951687 68.323846 70.951687 37.738706 0 68.323847-31.75307 68.323847-70.878692 0-39.198617-30.585141-70.878691-68.323847-70.878691z m273.368382 0c-37.738706 0-68.323847 31.680074-68.323847 70.805696 0 39.198617 30.585141 70.951687 68.323847 70.951687 37.738706 0 68.323847-31.75307 68.323846-70.878692 0-39.198617-30.658136-70.878691-68.323846-70.878691z m273.295386 0c-37.738706 0-68.323847 31.680074-68.323846 70.805696 0 39.198617 30.585141 70.951687 68.323846 70.951687 37.738706 0 68.323847-31.75307 68.323847-70.878692 0-39.198617-30.658136-70.878691-68.323847-70.878691zM957.409798 0.729956H137.450644C61.973233 0.729956 0.802951 64.236095 0.802951 142.560334v531.553686c0 78.324239 62.557197 150.51685 139.786502 150.51685h208.25634c36.278795 38.687648 186.503662 194.168196 186.503663 194.168196 6.715592 6.934578 17.518935 6.934578 24.161531 0 0 0 110.004313-124.676421 181.685955-194.168196h213.147042c77.15631 0 139.713507-72.265607 139.713507-150.51685V142.560334C1094.057491 64.236095 1032.88721 0.729956 957.409798 0.729956z m68.323847 673.311068c0 39.198617-32.848003 80.295119-71.389661 80.295119h-209.643255c-25.402456 0-48.177071 26.059416-48.177071 26.059416l-147.159054 152.633721-147.159054-152.633721s-28.030296-26.132411-52.045837-26.132411H140.589453c-38.687648 0-71.535651-41.023506-71.535651-80.222124V142.560334c0-39.198617 30.658136-70.878691 68.396842-70.878692h819.959154c37.738706 0 68.323847 31.680074 68.323847 70.805696v531.626682z" fill="#CDCDCD" p-id="25377"></path></svg>